<svg width="24" height="24" viewBox="0 0 24 24" fill="none" xmlns="http://www.w3.org/2000/svg">
<path fill-rule="evenodd" clip-rule="evenodd" d="M7.3304 2.00043H16.6694C20.0704 2.00043 21.9904 3.92943 22.0004 7.33043V16.6704C22.0004 20.0704 20.0704 22.0004 16.6694 22.0004H7.3304C3.9294 22.0004 2.0004 20.0704 2.0004 16.6704V7.33043C2.0004 3.92943 3.9294 2.00043 7.3304 2.00043ZM12.0494 17.8604C12.4804 17.8604 12.8394 17.5404 12.8794 17.1104V6.92044C12.9194 6.61044 12.7704 6.29944 12.5004 6.13044C12.2194 5.96044 11.8794 5.96044 11.6104 6.13044C11.3394 6.29944 11.1904 6.61044 11.2194 6.92044V17.1104C11.2704 17.5404 11.6294 17.8604 12.0494 17.8604ZM16.6503 17.8604C17.0703 17.8604 17.4293 17.5404 17.4803 17.1104V13.8304C17.5093 13.5094 17.3603 13.2104 17.0893 13.0404C16.8203 12.8704 16.4803 12.8704 16.2003 13.0404C15.9293 13.2104 15.7803 13.5094 15.8203 13.8304V17.1104C15.8603 17.5404 16.2193 17.8604 16.6503 17.8604ZM8.21944 17.1104C8.17944 17.5404 7.82044 17.8604 7.38944 17.8604C6.95944 17.8604 6.59944 17.5404 6.56044 17.1104V10.2004C6.53044 9.88943 6.67944 9.58043 6.95044 9.41043C7.21944 9.24043 7.56044 9.24043 7.83044 9.41043C8.09944 9.58043 8.25044 9.88943 8.21944 10.2004V17.1104Z" fill="#A3A3A4"/>
</svg>
