<svg width="24" height="24" viewBox="0 0 24 24" fill="none" xmlns="http://www.w3.org/2000/svg">
<path fill-rule="evenodd" clip-rule="evenodd" d="M4.53998 2.00024H7.91998C9.32998 2.00024 10.46 3.15024 10.46 4.56124V7.97024C10.46 9.39024 9.32998 10.5302 7.91998 10.5302H4.53998C3.13998 10.5302 1.99998 9.39024 1.99998 7.97024V4.56124C1.99998 3.15024 3.13998 2.00024 4.53998 2.00024ZM4.53993 13.47H7.91993C9.32993 13.47 10.4599 14.611 10.4599 16.031V19.44C10.4599 20.85 9.32993 22 7.91993 22H4.53993C3.13993 22 1.99993 20.85 1.99993 19.44V16.031C1.99993 14.611 3.13993 13.47 4.53993 13.47ZM19.4601 2.00026H16.0801C14.6701 2.00026 13.5401 3.15026 13.5401 4.56126V7.97026C13.5401 9.39026 14.6701 10.5303 16.0801 10.5303H19.4601C20.8601 10.5303 22.0001 9.39026 22.0001 7.97026V4.56126C22.0001 3.15026 20.8601 2.00026 19.4601 2.00026ZM16.0801 13.47H19.4601C20.8601 13.47 22.0001 14.611 22.0001 16.031V19.44C22.0001 20.85 20.8601 22 19.4601 22H16.0801C14.6701 22 13.5401 20.85 13.5401 19.44V16.031C13.5401 14.611 14.6701 13.47 16.0801 13.47Z" fill="#A3A3A4"/>
</svg>
